<svg width="32" height="32" viewBox="0 0 32 32" fill="none" xmlns="http://www.w3.org/2000/svg">
  <rect width="32" height="32" rx="8" fill="url(#g)"/>
  <path d="M10 25h12M16 15v10M20.5 5c.3.3.5.65.6 1 .1.4.1.75-.05 1.1A9.4 9.4 0 0 1 16 15a9.4 9.4 0 0 1-5.05-7.9c-.15-.35-.15-.7-.05-1.1.1-.35.3-.7.6-1C12.7 4.6 14.2 4.4 16 4.4s3.3.2 4.5.6Z" stroke="white" stroke-width="1.5" stroke-linecap="round" stroke-linejoin="round" fill="white" fill-opacity="0.2"/>
  <defs><linearGradient id="g" x1="0" y1="0" x2="32" y2="32"><stop stop-color="#a855f7"/><stop offset="1" stop-color="#6d28d9"/></linearGradient></defs>
</svg>
